<svg xmlns="http://www.w3.org/2000/svg" width="1040" height="760" viewBox="0 0 1040 760"><defs><clipPath id="clip-0"><path d="M 86 80 L 594 80 A 6 6 0 0 1 600 86 L 600 194 A 6 6 0 0 1 594 200 L 86 200 A 6 6 0 0 1 80 194 L 80 86 A 6 6 0 0 1 86 80 Z"/></clipPath><clipPath id="clip-1"><path d="M 86 320 L 314 320 A 6 6 0 0 1 320 326 L 320 434 A 6 6 0 0 1 314 440 L 86 440 A 6 6 0 0 1 80 434 L 80 326 A 6 6 0 0 1 86 320 Z"/></clipPath><clipPath id="clip-2"><path d="M 366 320 L 514 320 A 6 6 0 0 1 520 326 L 520 434 A 6 6 0 0 1 514 440 L 366 440 A 6 6 0 0 1 360 434 L 360 326 A 6 6 0 0 1 366 320 Z"/></clipPath><clipPath id="clip-3"><path d="M 726 240 L 954 240 A 6 6 0 0 1 960 246 L 960 354 A 6 6 0 0 1 954 360 L 726 360 A 6 6 0 0 1 720 354 L 720 246 A 6 6 0 0 1 726 240 Z"/></clipPath><clipPath id="clip-4"><path d="M 126 560 L 474 560 A 6 6 0 0 1 480 566 L 480 674 A 6 6 0 0 1 474 680 L 126 680 A 6 6 0 0 1 120 674 L 120 566 A 6 6 0 0 1 126 560 Z"/></clipPath><clipPath id="clip-5"><path d="M 686 600 L 914 600 A 6 6 0 0 1 920 606 L 920 714 A 6 6 0 0 1 914 720 L 686 720 A 6 6 0 0 1 680 714 L 680 606 A 6 6 0 0 1 686 600 Z"/></clipPath></defs><path d="M 100 214 L 100 306" stroke="#4f8cff" stroke-width="3" stroke-linecap="round" stroke-linejoin="miter" fill="none"/><path d="M 380 214 L 380 306" stroke="#4f8cff" stroke-width="3" stroke-linecap="round" stroke-linejoin="miter" fill="none"/><path d="M 500 214 L 500 220 L 740 220 L 740 226" stroke="#4f8cff" stroke-width="3" stroke-linecap="round" stroke-linejoin="miter" fill="none"/><path d="M 180 454 L 180 546" stroke="#4f8cff" stroke-width="3" stroke-linecap="round" stroke-linejoin="miter" fill="none"/><path d="M 460 454 L 460 546" stroke="#4f8cff" stroke-width="3" stroke-linecap="round" stroke-linejoin="miter" fill="none"/><path d="M 494 620 L 620 620 L 620 300 L 706 300" stroke="#4f8cff" stroke-width="3" stroke-linecap="round" stroke-linejoin="miter" fill="none"/><path d="M 494 660 L 666 660" stroke="#4f8cff" stroke-width="3" stroke-linecap="round" stroke-linejoin="miter" fill="none"/><path d="M 40 40 L 1000 40 L 1000 680 L 40 680 Z" stroke="rgba(28, 36, 49, 0.28)" stroke-width="1.5" stroke-linecap="butt" stroke-linejoin="miter" fill="none" stroke-dasharray="8 6"/><text x="44" y="34" text-anchor="start" dy="-0.1em" font-family="-apple-system, Segoe UI, Roboto, sans-serif" font-size="11px" font-weight="normal" font-style="normal" fill="#6b7686">nodigraph</text><path d="M 86 80 L 594 80 A 6 6 0 0 1 600 86 L 600 194 A 6 6 0 0 1 594 200 L 86 200 A 6 6 0 0 1 80 194 L 80 86 A 6 6 0 0 1 86 80 Z" fill="#ffffff"/><path d="M 86 80 L 594 80 A 6 6 0 0 1 600 86 L 600 194 A 6 6 0 0 1 594 200 L 86 200 A 6 6 0 0 1 80 194 L 80 86 A 6 6 0 0 1 86 80 Z" stroke="#3b6fa0" stroke-width="1.5" stroke-linecap="butt" stroke-linejoin="miter" fill="none"/><g clip-path="url(#clip-0)"><text x="340" y="140" text-anchor="middle" dy="0.35em" font-family="-apple-system, Segoe UI, Roboto, sans-serif" font-size="13px" font-weight="normal" font-style="normal" fill="#1c2431">main.js</text></g><path d="M 100 200 L 100 214" stroke="#4a5568" stroke-width="1.5" stroke-linecap="butt" stroke-linejoin="miter" fill="none"/><path d="M 96 194 L 104 194 L 104 206 L 96 206 Z" fill="#8b93a3"/><path d="M 96 194 L 104 194 L 104 206 L 96 206 Z" stroke="#ffffff" stroke-width="1" stroke-linecap="butt" stroke-linejoin="miter" fill="none"/><path d="M 100 218 L 96 210 L 104 210 Z" fill="#1c2431"/><text x="100" y="188" text-anchor="middle" dy="-0.1em" font-family="-apple-system, Segoe UI, Roboto, sans-serif" font-size="10px" font-weight="normal" font-style="normal" fill="#6b7686">mounts</text><path d="M 380 200 L 380 214" stroke="#4a5568" stroke-width="1.5" stroke-linecap="butt" stroke-linejoin="miter" fill="none"/><path d="M 376 194 L 384 194 L 384 206 L 376 206 Z" fill="#8b93a3"/><path d="M 376 194 L 384 194 L 384 206 L 376 206 Z" stroke="#ffffff" stroke-width="1" stroke-linecap="butt" stroke-linejoin="miter" fill="none"/><path d="M 380 218 L 376 210 L 384 210 Z" fill="#1c2431"/><text x="380" y="188" text-anchor="middle" dy="-0.1em" font-family="-apple-system, Segoe UI, Roboto, sans-serif" font-size="10px" font-weight="normal" font-style="normal" fill="#6b7686">mounts</text><path d="M 500 200 L 500 214" stroke="#4a5568" stroke-width="1.5" stroke-linecap="butt" stroke-linejoin="miter" fill="none"/><path d="M 496 194 L 504 194 L 504 206 L 496 206 Z" fill="#8b93a3"/><path d="M 496 194 L 504 194 L 504 206 L 496 206 Z" stroke="#ffffff" stroke-width="1" stroke-linecap="butt" stroke-linejoin="miter" fill="none"/><path d="M 500 218 L 496 210 L 504 210 Z" fill="#1c2431"/><text x="500" y="188" text-anchor="middle" dy="-0.1em" font-family="-apple-system, Segoe UI, Roboto, sans-serif" font-size="10px" font-weight="normal" font-style="normal" fill="#6b7686">mounts</text><path d="M 86 320 L 314 320 A 6 6 0 0 1 320 326 L 320 434 A 6 6 0 0 1 314 440 L 86 440 A 6 6 0 0 1 80 434 L 80 326 A 6 6 0 0 1 86 320 Z" fill="#ffffff"/><path d="M 86 320 L 314 320 A 6 6 0 0 1 320 326 L 320 434 A 6 6 0 0 1 314 440 L 86 440 A 6 6 0 0 1 80 434 L 80 326 A 6 6 0 0 1 86 320 Z" stroke="#3b6fa0" stroke-width="1.5" stroke-linecap="butt" stroke-linejoin="miter" fill="none"/><g clip-path="url(#clip-1)"><text x="200" y="380" text-anchor="middle" dy="0.35em" font-family="-apple-system, Segoe UI, Roboto, sans-serif" font-size="13px" font-weight="normal" font-style="normal" fill="#1c2431">ui/</text></g><path d="M 100 320 L 100 306" stroke="#4a5568" stroke-width="1.5" stroke-linecap="butt" stroke-linejoin="miter" fill="none"/><path d="M 96 314 L 104 314 L 104 326 L 96 326 Z" fill="#8b93a3"/><path d="M 96 314 L 104 314 L 104 326 L 96 326 Z" stroke="#ffffff" stroke-width="1" stroke-linecap="butt" stroke-linejoin="miter" fill="none"/><path d="M 100 310 L 96 302 L 104 302 Z" fill="#1c2431"/><text x="100" y="332" text-anchor="middle" dy="0.75em" font-family="-apple-system, Segoe UI, Roboto, sans-serif" font-size="10px" font-weight="normal" font-style="normal" fill="#6b7686">handlers</text><path d="M 180 440 L 180 454" stroke="#4a5568" stroke-width="1.5" stroke-linecap="butt" stroke-linejoin="miter" fill="none"/><path d="M 176 434 L 184 434 L 184 446 L 176 446 Z" fill="#8b93a3"/><path d="M 176 434 L 184 434 L 184 446 L 176 446 Z" stroke="#ffffff" stroke-width="1" stroke-linecap="butt" stroke-linejoin="miter" fill="none"/><path d="M 180 458 L 176 450 L 184 450 Z" fill="#1c2431"/><text x="180" y="428" text-anchor="middle" dy="-0.1em" font-family="-apple-system, Segoe UI, Roboto, sans-serif" font-size="10px" font-weight="normal" font-style="normal" fill="#6b7686">exports</text><path d="M 366 320 L 514 320 A 6 6 0 0 1 520 326 L 520 434 A 6 6 0 0 1 514 440 L 366 440 A 6 6 0 0 1 360 434 L 360 326 A 6 6 0 0 1 366 320 Z" fill="#ffffff"/><path d="M 366 320 L 514 320 A 6 6 0 0 1 520 326 L 520 434 A 6 6 0 0 1 514 440 L 366 440 A 6 6 0 0 1 360 434 L 360 326 A 6 6 0 0 1 366 320 Z" stroke="#3b6fa0" stroke-width="1.5" stroke-linecap="butt" stroke-linejoin="miter" fill="none"/><g clip-path="url(#clip-2)"><text x="440" y="380" text-anchor="middle" dy="0.35em" font-family="-apple-system, Segoe UI, Roboto, sans-serif" font-size="13px" font-weight="normal" font-style="normal" fill="#1c2431">interaction/</text></g><path d="M 380 320 L 380 306" stroke="#4a5568" stroke-width="1.5" stroke-linecap="butt" stroke-linejoin="miter" fill="none"/><path d="M 376 314 L 384 314 L 384 326 L 376 326 Z" fill="#8b93a3"/><path d="M 376 314 L 384 314 L 384 326 L 376 326 Z" stroke="#ffffff" stroke-width="1" stroke-linecap="butt" stroke-linejoin="miter" fill="none"/><path d="M 380 310 L 376 302 L 384 302 Z" fill="#1c2431"/><text x="380" y="332" text-anchor="middle" dy="0.75em" font-family="-apple-system, Segoe UI, Roboto, sans-serif" font-size="10px" font-weight="normal" font-style="normal" fill="#6b7686">handlers</text><path d="M 460 440 L 460 454" stroke="#4a5568" stroke-width="1.5" stroke-linecap="butt" stroke-linejoin="miter" fill="none"/><path d="M 456 434 L 464 434 L 464 446 L 456 446 Z" fill="#8b93a3"/><path d="M 456 434 L 464 434 L 464 446 L 456 446 Z" stroke="#ffffff" stroke-width="1" stroke-linecap="butt" stroke-linejoin="miter" fill="none"/><path d="M 460 458 L 456 450 L 464 450 Z" fill="#1c2431"/><text x="460" y="428" text-anchor="middle" dy="-0.1em" font-family="-apple-system, Segoe UI, Roboto, sans-serif" font-size="10px" font-weight="normal" font-style="normal" fill="#6b7686">edits</text><path d="M 726 240 L 954 240 A 6 6 0 0 1 960 246 L 960 354 A 6 6 0 0 1 954 360 L 726 360 A 6 6 0 0 1 720 354 L 720 246 A 6 6 0 0 1 726 240 Z" fill="#ffffff"/><path d="M 726 240 L 954 240 A 6 6 0 0 1 960 246 L 960 354 A 6 6 0 0 1 954 360 L 726 360 A 6 6 0 0 1 720 354 L 720 246 A 6 6 0 0 1 726 240 Z" stroke="#3b6fa0" stroke-width="1.5" stroke-linecap="butt" stroke-linejoin="miter" fill="none"/><g clip-path="url(#clip-3)"><text x="840" y="300" text-anchor="middle" dy="0.35em" font-family="-apple-system, Segoe UI, Roboto, sans-serif" font-size="13px" font-weight="normal" font-style="normal" fill="#1c2431">render/</text></g><path d="M 740 240 L 740 226" stroke="#4a5568" stroke-width="1.5" stroke-linecap="butt" stroke-linejoin="miter" fill="none"/><path d="M 736 234 L 744 234 L 744 246 L 736 246 Z" fill="#8b93a3"/><path d="M 736 234 L 744 234 L 744 246 L 736 246 Z" stroke="#ffffff" stroke-width="1" stroke-linecap="butt" stroke-linejoin="miter" fill="none"/><path d="M 740 230 L 736 222 L 744 222 Z" fill="#1c2431"/><text x="740" y="252" text-anchor="middle" dy="0.75em" font-family="-apple-system, Segoe UI, Roboto, sans-serif" font-size="10px" font-weight="normal" font-style="normal" fill="#6b7686">handlers</text><path d="M 720 300 L 706 300" stroke="#4a5568" stroke-width="1.5" stroke-linecap="butt" stroke-linejoin="miter" fill="none"/><path d="M 714 296 L 726 296 L 726 304 L 714 304 Z" fill="#8b93a3"/><path d="M 714 296 L 726 296 L 726 304 L 714 304 Z" stroke="#ffffff" stroke-width="1" stroke-linecap="butt" stroke-linejoin="miter" fill="none"/><path d="M 710 300 L 702 304 L 702 296 Z" fill="#1c2431"/><text x="732" y="300" text-anchor="start" dy="0.35em" font-family="-apple-system, Segoe UI, Roboto, sans-serif" font-size="10px" font-weight="normal" font-style="normal" fill="#6b7686">reads</text><path d="M 126 560 L 474 560 A 6 6 0 0 1 480 566 L 480 674 A 6 6 0 0 1 474 680 L 126 680 A 6 6 0 0 1 120 674 L 120 566 A 6 6 0 0 1 126 560 Z" fill="#ffffff"/><path d="M 126 560 L 474 560 A 6 6 0 0 1 480 566 L 480 674 A 6 6 0 0 1 474 680 L 126 680 A 6 6 0 0 1 120 674 L 120 566 A 6 6 0 0 1 126 560 Z" stroke="#3b6fa0" stroke-width="1.5" stroke-linecap="butt" stroke-linejoin="miter" fill="none"/><g clip-path="url(#clip-4)"><text x="300" y="620" text-anchor="middle" dy="0.35em" font-family="-apple-system, Segoe UI, Roboto, sans-serif" font-size="13px" font-weight="normal" font-style="normal" fill="#1c2431">model/</text></g><path d="M 180 560 L 180 546" stroke="#4a5568" stroke-width="1.5" stroke-linecap="butt" stroke-linejoin="miter" fill="none"/><path d="M 176 554 L 184 554 L 184 566 L 176 566 Z" fill="#8b93a3"/><path d="M 176 554 L 184 554 L 184 566 L 176 566 Z" stroke="#ffffff" stroke-width="1" stroke-linecap="butt" stroke-linejoin="miter" fill="none"/><path d="M 180 550 L 176 542 L 184 542 Z" fill="#1c2431"/><text x="180" y="572" text-anchor="middle" dy="0.75em" font-family="-apple-system, Segoe UI, Roboto, sans-serif" font-size="10px" font-weight="normal" font-style="normal" fill="#6b7686">serialize</text><path d="M 460 560 L 460 546" stroke="#4a5568" stroke-width="1.5" stroke-linecap="butt" stroke-linejoin="miter" fill="none"/><path d="M 456 554 L 464 554 L 464 566 L 456 566 Z" fill="#8b93a3"/><path d="M 456 554 L 464 554 L 464 566 L 456 566 Z" stroke="#ffffff" stroke-width="1" stroke-linecap="butt" stroke-linejoin="miter" fill="none"/><path d="M 460 550 L 456 542 L 464 542 Z" fill="#1c2431"/><text x="460" y="572" text-anchor="middle" dy="0.75em" font-family="-apple-system, Segoe UI, Roboto, sans-serif" font-size="10px" font-weight="normal" font-style="normal" fill="#6b7686">mutate</text><path d="M 480 620 L 494 620" stroke="#4a5568" stroke-width="1.5" stroke-linecap="butt" stroke-linejoin="miter" fill="none"/><path d="M 474 616 L 486 616 L 486 624 L 474 624 Z" fill="#8b93a3"/><path d="M 474 616 L 486 616 L 486 624 L 474 624 Z" stroke="#ffffff" stroke-width="1" stroke-linecap="butt" stroke-linejoin="miter" fill="none"/><path d="M 498 620 L 490 624 L 490 616 Z" fill="#1c2431"/><text x="468" y="620" text-anchor="end" dy="0.35em" font-family="-apple-system, Segoe UI, Roboto, sans-serif" font-size="10px" font-weight="normal" font-style="normal" fill="#6b7686">data</text><path d="M 480 660 L 494 660" stroke="#4a5568" stroke-width="1.5" stroke-linecap="butt" stroke-linejoin="miter" fill="none"/><path d="M 474 656 L 486 656 L 486 664 L 474 664 Z" fill="#8b93a3"/><path d="M 474 656 L 486 656 L 486 664 L 474 664 Z" stroke="#ffffff" stroke-width="1" stroke-linecap="butt" stroke-linejoin="miter" fill="none"/><path d="M 498 660 L 490 664 L 490 656 Z" fill="#1c2431"/><text x="468" y="660" text-anchor="end" dy="0.35em" font-family="-apple-system, Segoe UI, Roboto, sans-serif" font-size="10px" font-weight="normal" font-style="normal" fill="#6b7686">sync</text><path d="M 686 600 L 914 600 A 6 6 0 0 1 920 606 L 920 714 A 6 6 0 0 1 914 720 L 686 720 A 6 6 0 0 1 680 714 L 680 606 A 6 6 0 0 1 686 600 Z" fill="#ffffff"/><path d="M 686 600 L 914 600 A 6 6 0 0 1 920 606 L 920 714 A 6 6 0 0 1 914 720 L 686 720 A 6 6 0 0 1 680 714 L 680 606 A 6 6 0 0 1 686 600 Z" stroke="#3b6fa0" stroke-width="1.5" stroke-linecap="butt" stroke-linejoin="miter" fill="none"/><g clip-path="url(#clip-5)"><text x="800" y="660" text-anchor="middle" dy="0.35em" font-family="-apple-system, Segoe UI, Roboto, sans-serif" font-size="13px" font-weight="normal" font-style="normal" fill="#1c2431">server/</text></g><path d="M 680 660 L 666 660" stroke="#4a5568" stroke-width="1.5" stroke-linecap="butt" stroke-linejoin="miter" fill="none"/><path d="M 674 656 L 686 656 L 686 664 L 674 664 Z" fill="#8b93a3"/><path d="M 674 656 L 686 656 L 686 664 L 674 664 Z" stroke="#ffffff" stroke-width="1" stroke-linecap="butt" stroke-linejoin="miter" fill="none"/><path d="M 670 660 L 662 664 L 662 656 Z" fill="#1c2431"/><text x="692" y="660" text-anchor="start" dy="0.35em" font-family="-apple-system, Segoe UI, Roboto, sans-serif" font-size="10px" font-weight="normal" font-style="normal" fill="#6b7686">sync</text></svg>